<svg xmlns="http://www.w3.org/2000/svg" xmlns:xlink="http://www.w3.org/1999/xlink" id="Capa_1" x="0px" y="0px" viewBox="0 0 1066.3 230.1" style="enable-background:new 0 0 1066.3 230.1;" xml:space="preserve"> <style type="text/css"> .st0{fill-rule:evenodd;clip-rule:evenodd;fill:#FFFFFF;} </style> <g> <path class="st0" d="M165.5,24.4H82.7c0,0-63.2,1.4-63.2,75.7c0,74.3,63.2,79.2,63.2,79.2h166.9L288,95.2l19.8,46.3h-34.6v36.6 h75.3c0,0,27.1,1.2,18.6-36.6l-41.9-87.9c0,0-13.6-31.7-50.7-30.4c-37.1,1.2-49.7,44-49.7,44L192.7,139h-79.1 c0,0-26.1-4.5-26.1-36.4c0-31.9,28.6-37.9,28.6-37.9h49.4V24.4z"></path> <path class="st0" d="M422.7,181H373V51c0,0,9.6-47.9,58.8-21.5c0,0,11.6,6.6,22.9,19.7l29.8,29.4V21h48.8v132.1 c0,0,0.1,26.8-26.7,29.7c0,0-15.6,1.3-27.1-11.2l-56.4-54.2L422.7,181z"></path> <path class="st0" d="M677.9,21.8H575.2c0,0-32.8-0.4-32.8,32.3v97.2c0,0,2.4,30.8,30.5,30.8h104.2v-41.1h-63.7V122h46l18.8-42H615 V63.3h62.9V21.8z"></path> <path class="st0" d="M688,21.8v164.7c0,0-3.7,28.1,30.5,33.4h109.8l16.9-37.1h-74.8c0,0-20.7-0.4-21.8-20.8V21.8H688z"></path> <path class="st0" d="M758,21.4v140.3c0,0-0.6,11.9,8.3,11.9h80.1l17.7-35.3h-44.3v-117H758z"></path> <path class="st0" d="M853.7,179.5l60.2-132.2c0,0,11.5-25.9,41.5-24.4c30,1.5,40.6,26.3,40.6,26.3l40.2,89.6c0,0,16,31.6-14.6,40.8 h-70.9V138h33.9L965,95.2l-39.5,84.3H853.7z"></path> </g> </svg>